<svg width="24" height="24" viewBox="0 0 24 24" fill="none" xmlns="http://www.w3.org/2000/svg">
<path d="M16.946 3.17301C17.533 2.58601 17.826 2.29301 18.152 2.15201C18.621 1.94901 19.152 1.94901 19.621 2.15201C19.946 2.29201 20.24 2.58601 20.827 3.17301C21.414 3.76001 21.707 4.05401 21.848 4.37901C22.051 4.84801 22.051 5.37901 21.848 5.84801C21.708 6.17301 21.414 6.46701 20.827 7.05401L15.805 12.076C14.568 13.313 13.95 13.931 13.175 14.298C12.4 14.665 11.529 14.75 9.788 14.922L9 15L9.078 14.212C9.25 12.471 9.335 11.6 9.702 10.825C10.069 10.05 10.687 9.43201 11.924 8.19501L16.946 3.17301Z" stroke="#2B3031" stroke-width="1.5" stroke-linejoin="round"/>
<path d="M6 15H3.75C3.28587 15 2.84075 15.1844 2.51256 15.5126C2.18437 15.8408 2 16.2859 2 16.75C2 17.2141 2.18437 17.6592 2.51256 17.9874C2.84075 18.3156 3.28587 18.5 3.75 18.5H13.25C13.7141 18.5 14.1592 18.6844 14.4874 19.0126C14.8156 19.3408 15 19.7859 15 20.25C15 20.7141 14.8156 21.1592 14.4874 21.4874C14.1592 21.8156 13.7141 22 13.25 22H11" stroke="#2B3031" stroke-width="1.5" stroke-linecap="round" stroke-linejoin="round"/>
</svg>
