<svg width="24" height="24" viewBox="0 0 24 24" fill="none" xmlns="http://www.w3.org/2000/svg">
<path d="M13 15.5C13 15.7652 12.8946 16.0196 12.7071 16.2071C12.5196 16.3946 12.2652 16.5 12 16.5C11.7348 16.5 11.4804 16.3946 11.2929 16.2071C11.1054 16.0196 11 15.7652 11 15.5C11 15.2348 11.1054 14.9804 11.2929 14.7929C11.4804 14.6054 11.7348 14.5 12 14.5C12.2652 14.5 12.5196 14.6054 12.7071 14.7929C12.8946 14.9804 13 15.2348 13 15.5ZM12.75 7.25C12.75 7.05109 12.671 6.86032 12.5303 6.71967C12.3897 6.57902 12.1989 6.5 12 6.5C11.8011 6.5 11.6103 6.57902 11.4697 6.71967C11.329 6.86032 11.25 7.05109 11.25 7.25V11.75C11.25 11.9489 11.329 12.1397 11.4697 12.2803C11.6103 12.421 11.8011 12.5 12 12.5C12.1989 12.5 12.3897 12.421 12.5303 12.2803C12.671 12.1397 12.75 11.9489 12.75 11.75V7.25Z" fill="#2B3031"/>
<path d="M11.46 0.637034C11.811 0.52317 12.189 0.52317 12.54 0.637034L20.79 3.31203C21.1416 3.42608 21.448 3.64851 21.6654 3.94744C21.8827 4.24636 21.9999 4.60643 22 4.97603V10C22 16.19 18.23 20.705 12.599 22.83C12.2129 22.9754 11.7871 22.9754 11.401 22.83C5.771 20.704 2 16.19 2 10V4.97603C2 4.21603 2.49 3.54603 3.21 3.31203L11.46 0.637034ZM12.077 2.06303C12.0269 2.04683 11.9731 2.04683 11.923 2.06303L3.673 4.74003C3.62287 4.75626 3.57914 4.78792 3.54807 4.83048C3.517 4.87305 3.50018 4.92434 3.5 4.97703V10C3.5 15.461 6.78 19.483 11.93 21.426C11.9751 21.4429 12.0249 21.4429 12.07 21.426C17.22 19.483 20.5 15.46 20.5 10V4.97603C20.4998 4.92334 20.483 4.87205 20.4519 4.82948C20.4209 4.78692 20.3771 4.75526 20.327 4.73903L12.077 2.06303Z" fill="#2B3031"/>
</svg>
