<svg width="24" height="24" viewBox="0 0 24 24" fill="none" xmlns="http://www.w3.org/2000/svg">
<path fill-rule="evenodd" clip-rule="evenodd" d="M14.314 18.104C15.806 17.672 17.066 16.36 17.77 15.09C18.3892 13.9414 18.654 12.635 18.531 11.336C18.511 11.1333 18.4683 10.936 18.403 10.744C18.372 10.641 18.634 10.292 18.737 10.153L18.767 10.112C19.3992 9.24658 20.0235 8.37554 20.64 7.49895C20.748 7.36162 20.8403 7.21429 20.917 7.05695L20.984 6.99495C21.0107 6.96362 21.004 6.95029 20.964 6.95495C19.864 7.00029 18.741 7.06695 17.595 7.15495C17.2197 7.18429 16.8357 7.19629 16.443 7.19095C16.4032 7.19034 16.3636 7.18497 16.325 7.17495C16.3018 7.16888 16.2816 7.15469 16.268 7.13495C15.378 6.00795 12.216 5.21095 10.323 5.73495C9.39499 5.98002 8.52937 6.41878 7.78308 7.02237C7.03678 7.62596 6.42672 8.3807 5.99301 9.23695C5.39995 10.4838 5.21283 11.8852 5.45801 13.244C5.64401 14.38 4.63601 15.404 3.77701 16.278C3.48901 16.571 3.21101 16.844 3.01001 17.101C2.99068 17.137 2.99935 17.1523 3.03601 17.147C3.60601 17.1136 4.17535 17.0706 4.74401 17.018C5.64401 16.936 6.54401 16.858 7.44901 16.864C7.55701 16.864 7.62901 16.926 7.69001 16.987L7.77801 17.065C8.71743 17.7223 9.79404 18.1573 10.9264 18.3371C12.0588 18.517 13.2172 18.4379 14.314 18.104ZM8.09101 14.996C8.30701 15.016 8.46101 15.053 8.62101 15.217C9.07216 15.665 9.60902 16.0176 10.1995 16.2534C10.79 16.4893 11.422 16.6037 12.0577 16.5898C12.6934 16.5759 13.3198 16.434 13.8994 16.1725C14.479 15.911 14.9999 15.5353 15.431 15.068C15.9364 14.4917 16.2926 13.8002 16.4682 13.054C16.6438 12.3079 16.6334 11.5301 16.438 10.789C16.387 10.651 16.335 10.496 16.387 10.399L17.127 9.08195C17.1243 9.07455 17.1194 9.06813 17.113 9.0635C17.1065 9.05887 17.0989 9.05625 17.091 9.05595C16.515 9.10795 16.027 9.09195 15.615 9.01595C15.409 8.97395 15.296 8.85095 15.173 8.72195C14.5638 8.16912 13.8252 7.77858 13.0253 7.58633C12.2254 7.39409 11.3899 7.40634 10.596 7.62195C10.483 7.65195 10.386 7.69895 10.282 7.74495L10.102 7.82695C8.09701 8.60395 7.05801 10.748 7.36201 12.764C7.37201 12.852 7.39701 12.944 7.42201 13.037C7.48001 13.263 7.54201 13.505 7.46401 13.705C7.29544 14.1414 7.06872 14.5531 6.79001 14.929C6.78878 14.9398 6.79115 14.9508 6.79675 14.9602C6.80235 14.9696 6.81087 14.9769 6.82101 14.981C6.82601 14.991 6.84101 14.991 6.85201 14.991C7.26611 14.9523 7.68291 14.9523 8.09701 14.991L8.09101 14.996Z" fill="#2B3031"/>
<path d="M4.28579 9.17099C4.45762 9.17578 4.62867 9.14608 4.78882 9.08363C4.94897 9.02118 5.09498 8.92726 5.21822 8.80742C5.34145 8.68757 5.43941 8.54424 5.50629 8.38589C5.57318 8.22754 5.60764 8.05739 5.60764 7.88549C5.60764 7.71359 5.57318 7.54344 5.50629 7.38509C5.43941 7.22673 5.34145 7.0834 5.21822 6.96356C5.09498 6.84371 4.94897 6.74979 4.78882 6.68735C4.62867 6.6249 4.45762 6.59519 4.28579 6.59999C3.95106 6.60932 3.63317 6.74886 3.39971 6.98892C3.16626 7.22897 3.03564 7.55063 3.03564 7.88549C3.03564 8.22035 3.16626 8.542 3.39971 8.78206C3.63317 9.02212 3.95106 9.16165 4.28579 9.17099Z" fill="#2B3031"/>
</svg>
